<svg xmlns="http://www.w3.org/2000/svg" viewBox="0 0 172.04 49.19"><defs><style>.cls-1{fill:#7290ad;}</style></defs><g id="Layer_2" data-name="Layer 2"><g id="Layer_1-2" data-name="Layer 1"><path class="cls-1" d="M43.94,26.08a2.33,2.33,0,0,0-.78-1A1.9,1.9,0,0,0,42,24.74a1.87,1.87,0,0,0-1.11.37,2.11,2.11,0,0,0-.76,1l-7.06,16a1.7,1.7,0,0,0-.09.29c0,.11-.07.23-.1.34a.94.94,0,0,0,.4.68,1.46,1.46,0,0,0,.86.23,1.3,1.3,0,0,0,1.39-.8L37,39.53H47.13l1.44,3.36a1.13,1.13,0,0,0,.55.65,1.81,1.81,0,0,0,.82.2,1.68,1.68,0,0,0,.91-.23.76.76,0,0,0,.35-.68,2.38,2.38,0,0,0-.12-.68ZM37.83,37.54,42,27.45h.06l4.22,10.09Z"/><path class="cls-1" d="M63.21,30.06a6.7,6.7,0,0,0-2.82-.57,6.26,6.26,0,0,0-2.48.47,5.18,5.18,0,0,0-2,1.35l-.06-.06v-.54a1.12,1.12,0,0,0-.41-.91,1.37,1.37,0,0,0-.94-.31,1.39,1.39,0,0,0-.94.32,1.14,1.14,0,0,0-.38.9V42.52a1.14,1.14,0,0,0,.44.89,1.4,1.4,0,0,0,.94.33,1.32,1.32,0,0,0,.91-.31,1.12,1.12,0,0,0,.38-.91V34.88a2.94,2.94,0,0,1,.55-1.82,2.85,2.85,0,0,1,1.38-1.14,4.36,4.36,0,0,1,1.87-.4,4.11,4.11,0,0,1,2.66.89,2.91,2.91,0,0,1,1.11,2.42v7.69a.93.93,0,0,0,.39.81,1.43,1.43,0,0,0,.93.31,1.56,1.56,0,0,0,.94-.28,1,1,0,0,0,.41-.84V34.78a5.31,5.31,0,0,0-.8-2.93A4.81,4.81,0,0,0,63.21,30.06Z"/><path class="cls-1" d="M81.6,23.39a1.48,1.48,0,0,0-.92.31,1,1,0,0,0-.4.84v6.83h-.06a5.55,5.55,0,0,0-4.43-1.88A6.79,6.79,0,0,0,73,30a7.21,7.21,0,0,0-2.21,1.54,7.55,7.55,0,0,0-1.42,2.32,7.69,7.69,0,0,0-.48,2.76,7.86,7.86,0,0,0,.91,3.65,6.23,6.23,0,0,0,2.55,2.51,7.65,7.65,0,0,0,3.78.88,6,6,0,0,0,2.67-.58,3.41,3.41,0,0,0,1.41-1.31h.06v.76a1,1,0,0,0,.4.82,1.59,1.59,0,0,0,.92.31,1.52,1.52,0,0,0,1-.31,1,1,0,0,0,.4-.86V24.59a1,1,0,0,0-.4-.89A1.52,1.52,0,0,0,81.6,23.39ZM80.09,39.05a4.07,4.07,0,0,1-1.5,1.89,4.55,4.55,0,0,1-2.72.76,3.84,3.84,0,0,1-3.2-1.56,6,6,0,0,1-1.08-3.6,6.13,6.13,0,0,1,.53-2.39,4.25,4.25,0,0,1,1.47-1.93,4,4,0,0,1,2.52-.75,4.14,4.14,0,0,1,2.31.65A4.08,4.08,0,0,1,80,33.91a5.82,5.82,0,0,1,.59,2.68A6.94,6.94,0,0,1,80.09,39.05Z"/><path class="cls-1" d="M94.12,29.83a1.59,1.59,0,0,0-1.06-.34,3.48,3.48,0,0,0-2,.76,6.4,6.4,0,0,0-1.57,1.64h-.06V30.71a1,1,0,0,0-.41-.86,1.44,1.44,0,0,0-.94-.31,1.39,1.39,0,0,0-.93.31,1,1,0,0,0-.39.86V42.47a1.15,1.15,0,0,0,.39.91,1.64,1.64,0,0,0,1,.31,1.32,1.32,0,0,0,.91-.31,1.07,1.07,0,0,0,.38-.86V35.8a3.58,3.58,0,0,1,2.17-3.48A7.61,7.61,0,0,1,92.72,32a5.63,5.63,0,0,0,1.4-.47.92.92,0,0,0,.47-.86A1,1,0,0,0,94.12,29.83Z"/><path class="cls-1" d="M106.61,30.48a7.4,7.4,0,0,0-3.8-1,7.63,7.63,0,0,0-3.71.91A6.42,6.42,0,0,0,96.52,33a7.08,7.08,0,0,0-.91,3.64,7.19,7.19,0,0,0,.85,3.52A6.65,6.65,0,0,0,99,42.73a8,8,0,0,0,7.6,0,6.5,6.5,0,0,0,2.52-2.58A7.28,7.28,0,0,0,110,36.6a7.18,7.18,0,0,0-.85-3.51A6.72,6.72,0,0,0,106.61,30.48Zm.15,8.69a4,4,0,0,1-1.5,1.82,4.2,4.2,0,0,1-2.51.71,3.74,3.74,0,0,1-3.37-1.59,6,6,0,0,1-1.08-3.52A6.5,6.5,0,0,1,98.83,34a4.09,4.09,0,0,1,1.52-1.84,4.51,4.51,0,0,1,2.46-.65,4.14,4.14,0,0,1,2.45.7,4.31,4.31,0,0,1,1.5,1.84,6.36,6.36,0,0,1,.52,2.58A6.57,6.57,0,0,1,106.76,39.17Z"/><path class="cls-1" d="M114.07,23.44a1.4,1.4,0,0,0-.93.32,1,1,0,0,0-.39.88V42.47a1.08,1.08,0,0,0,.39.89,1.43,1.43,0,0,0,.93.33,1.48,1.48,0,0,0,.94-.31,1.13,1.13,0,0,0,.4-.91V24.59a1,1,0,0,0-.41-.86A1.58,1.58,0,0,0,114.07,23.44Z"/><path class="cls-1" d="M129.25,30.48a7.43,7.43,0,0,0-3.8-1,7.7,7.7,0,0,0-3.72.91A6.46,6.46,0,0,0,119.16,33a7.08,7.08,0,0,0-.92,3.64,7.2,7.2,0,0,0,.86,3.52,6.69,6.69,0,0,0,2.54,2.61,8,8,0,0,0,7.61,0,6.41,6.41,0,0,0,2.51-2.58,7.28,7.28,0,0,0,.86-3.55,7.18,7.18,0,0,0-.86-3.51A6.62,6.62,0,0,0,129.25,30.48Zm.15,8.69A4,4,0,0,1,127.9,41a4.25,4.25,0,0,1-2.51.71A3.74,3.74,0,0,1,122,40.11a6,6,0,0,1-1.08-3.52,6.5,6.5,0,0,1,.52-2.63A4.11,4.11,0,0,1,123,32.12a4.51,4.51,0,0,1,2.46-.65,4.16,4.16,0,0,1,2.45.7A4.31,4.31,0,0,1,129.4,34a6.36,6.36,0,0,1,.52,2.58A6.76,6.76,0,0,1,129.4,39.17Z"/><path class="cls-1" d="M147.35,29.54a1.44,1.44,0,0,0-.93.29,1,1,0,0,0-.4.83v.76H146A3.23,3.23,0,0,0,144.42,30a5.93,5.93,0,0,0-2.53-.51,7.6,7.6,0,0,0-3.78.89,6.1,6.1,0,0,0-2.54,2.49,7.81,7.81,0,0,0-.92,3.63,7.5,7.5,0,0,0,.89,3.6A6.4,6.4,0,0,0,138,42.7a7.18,7.18,0,0,0,3.63,1,6.09,6.09,0,0,0,2.63-.55A3.89,3.89,0,0,0,146,41.7H146V42a.77.77,0,0,1,0,.27A5.59,5.59,0,0,1,145,45.71a3.88,3.88,0,0,1-3.33,1.49,7.12,7.12,0,0,1-2-.29,7.87,7.87,0,0,1-1.69-.72,5,5,0,0,0-1.81-.63,1.24,1.24,0,0,0-1.08,1c.06.51.5,1,1.32,1.43a11.23,11.23,0,0,0,5.09,1.23,8.44,8.44,0,0,0,3.89-.88A5.7,5.7,0,0,0,147.86,46a6.57,6.57,0,0,0,.87-3.38V30.71a1,1,0,0,0-.41-.88A1.49,1.49,0,0,0,147.35,29.54ZM145,40.38a4.47,4.47,0,0,1-3.36,1.32,4.18,4.18,0,0,1-2.34-.71,4.13,4.13,0,0,1-1.47-1.82,6.6,6.6,0,0,1-.52-2.58,6.24,6.24,0,0,1,.46-2.44,4.27,4.27,0,0,1,1.41-1.9,4,4,0,0,1,2.4-.78,4.35,4.35,0,0,1,4.22,2.76,6.27,6.27,0,0,1,.49,2.53A5,5,0,0,1,145,40.38Z"/><path class="cls-1" d="M153.79,29.49a1.39,1.39,0,0,0-.93.31,1,1,0,0,0-.39.86V42.52a1.05,1.05,0,0,0,.39.86,1.55,1.55,0,0,0,.93.31,1.48,1.48,0,0,0,.94-.31,1,1,0,0,0,.41-.86V30.71a1.12,1.12,0,0,0-.41-.91A1.37,1.37,0,0,0,153.79,29.49Z"/><path class="cls-1" d="M153.79,25.26a1.7,1.7,0,0,0-1.11.4,1.18,1.18,0,0,0,0,1.82,1.67,1.67,0,0,0,1.11.39,1.61,1.61,0,0,0,1.07-.36,1.25,1.25,0,0,0,0-1.88A1.63,1.63,0,0,0,153.79,25.26Z"/><path class="cls-1" d="M170.72,39.85a2.17,2.17,0,0,0-1,.42,7.27,7.27,0,0,1-4.38,1.43,6.35,6.35,0,0,1-2.49-.47,3.78,3.78,0,0,1-1.77-1.43,4,4,0,0,1-.71-2.31h10.18c1,0,1.51-.37,1.51-1.12a7,7,0,0,0-3.45-5.92,7.05,7.05,0,0,0-3.74-1,7.3,7.3,0,0,0-3.76,1,6.85,6.85,0,0,0-2.48,2.59,7.78,7.78,0,0,0-1,3.38v0l-.06.1a8.56,8.56,0,0,0,.43,2.48,7.12,7.12,0,0,0,1.32,2.29A6.08,6.08,0,0,0,161.71,43a8.35,8.35,0,0,0,3.46.65,10.48,10.48,0,0,0,3.56-.6,7.94,7.94,0,0,0,2.55-1.43,1.18,1.18,0,0,0,.39-.84,1,1,0,0,0-.24-.68A.86.86,0,0,0,170.72,39.85Zm-9-7.26A4.63,4.63,0,0,1,165,31.47a4.54,4.54,0,0,1,3.17,1.2,4.35,4.35,0,0,1,1.18,3.08h-9A4.33,4.33,0,0,1,161.71,32.59Z"/><path class="cls-1" d="M29.31,16,40,5.23V20.07a1.5,1.5,0,0,0,3,0V1.52A1.5,1.5,0,0,0,41.53,0L23.62,0h0a1.5,1.5,0,0,0,0,3L38,3,27.21,13.81A16.46,16.46,0,1,0,29.31,16ZM16.51,39.88A13.51,13.51,0,1,1,30,26.37,13.52,13.52,0,0,1,16.51,39.88Z"/></g></g></svg>