<svg width="82" height="33" viewBox="0 0 82 33" fill="none" xmlns="http://www.w3.org/2000/svg"><path d="M41.451 13.503c-.4.036-.658-.255-.538-.635.453-1.436 1.854-4.707 5.49-6.142 5.042-1.989 10.456 3.677 6.558 4.68-3.138.81-9.364 1.902-11.51 2.097Zm.254 10.32c-.906-3.83 3.573-4.583 3.573-4.583l7.92-1.311a.627.627 0 0 1 .752.6l.088 1.924c.074 3.491-1.01 4.221-2.276 4.996-1.664 1.019-9.06 2.594-10.057-1.625ZM14.49 19.806c-.11-.383.156-.7.558-.7h15.324c.402 0 .669.317.559.7-1.02 3.549-4.313 6.148-8.221 6.148-3.908 0-7.202-2.599-8.22-6.148Zm13.686-7.96c.088.39-.203.711-.605.711H15.244c-.402 0-.694-.322-.605-.71.698-3.068 3.463-5.358 6.768-5.358 3.307 0 6.071 2.29 6.77 5.357Zm39.956 14.141c-4.65-.007-6.188-2.353-6.193-5.288V8.01c0-2.493-1.959-7.64-12.955-7.891-9-.205-12.707 5.044-13.757 6.956-.191.35-.464.358-.657.008C31.549 1.62 27.254.119 21.468.119 13.811.12 8.473 5.135 6.856 11.986c-.09.388-.477.706-.879.706H3.094C1.392 12.692 0 14.072 0 15.758v.164c0 1.686 1.392 3.066 3.094 3.066h2.693c.402 0 .77.32.84.712 1.357 7.506 7.436 13.163 15.569 13.163 4.638 0 8.575-1.378 11.548-3.675a.803.803 0 0 1 1.055.074C36.706 31.182 40.028 33 45.762 33c4.366 0 7.683-1.58 10.142-3.604a.822.822 0 0 1 1.069.033c2.995 2.776 8.96 6.035 17.67.377l.083-.055c.008 1.68 1.396 3.052 3.093 3.052h1.088c1.702 0 3.093-1.38 3.093-3.065V3.064C82 1.378 80.609 0 78.907 0H77.82c-1.701 0-3.093 1.38-3.093 3.065v17.338c.032 1.084-1.014 5.592-6.593 5.584Z" fill="#65ABDC"/></svg>