<svg xmlns="http://www.w3.org/2000/svg" viewBox="0 0 169.87 229.28"><defs><style>.cls-1{fill:#002d7c;}.cls-2{fill:#fff;}</style></defs><g id="Layer_2" data-name="Layer 2"><g id="Layer_1-2" data-name="Layer 1"><path class="cls-1" d="M152.52,0H17.38A17.38,17.38,0,0,0,0,17.38V211.91a17.38,17.38,0,0,0,17.38,17.37H152.49a17.38,17.38,0,0,0,17.38-17.37V17.4A17.38,17.38,0,0,0,152.52,0Z"/><path class="cls-2" d="M154.19,84.6a1,1,0,0,0-1.15.87h0a56.79,56.79,0,0,1-2.8,11.85A43.43,43.43,0,0,1,144.72,108a30.5,30.5,0,0,1-8.43,8.18,19.33,19.33,0,0,1-5.18,2.36,12.86,12.86,0,0,1-5.38.44,9.24,9.24,0,0,1-4.65-2,11.12,11.12,0,0,1-3.06-4.2,24.25,24.25,0,0,1-1.47-11.17c0-.49.06-1,.12-1.47l.17-1.5c.12-1,.25-2.1.33-3.17a50.56,50.56,0,0,0,.21-6.55c0-.27,0-.53,0-.8l.74.29a30,30,0,0,1,5.46,3,20.75,20.75,0,0,1,4.47,4.2,16.18,16.18,0,0,1,2.78,5.47v0a1.16,1.16,0,0,0,2.27-.5,19,19,0,0,0-2.43-6.75,24,24,0,0,0-4.6-5.54,33.81,33.81,0,0,0-5.8-4.17l-.31-.16A38.74,38.74,0,0,0,123,81.34a31.6,31.6,0,0,0,4.9-5.67,23.11,23.11,0,0,0,3.15-6.84,20.56,20.56,0,0,0,.59-7.43,1.13,1.13,0,0,0-2.25.1,18.88,18.88,0,0,1-4.58,11.88,30.9,30.9,0,0,1-9.54,7.37,21.71,21.71,0,0,0-1.24-2l-.49-.67-.46-.64c-.28-.39-.56-.78-.82-1.18a36.53,36.53,0,0,1-4.77-10.35c-.25-.92-.46-1.84-.62-2.78-.09-.47-.18-.94-.23-1.41s-.12-.94-.15-1.41a22.81,22.81,0,0,1,.17-5.55,16.58,16.58,0,0,1,1.7-5.1,14.92,14.92,0,0,1,1.46-2.22,16,16,0,0,1,1.85-1.92,17.6,17.6,0,0,1,10.12-4,22.54,22.54,0,0,1,2.85,0,25.07,25.07,0,0,1,2.85.31,25.47,25.47,0,0,1,5.57,1.6A29.24,29.24,0,0,1,142.79,50a34.45,34.45,0,0,1,6.73,9.78,44.28,44.28,0,0,1,3.41,11.58h0A1.06,1.06,0,0,0,155,71,46.9,46.9,0,0,0,152,58.67a36.55,36.55,0,0,0-6.86-10.93A32.76,32.76,0,0,0,134.57,40a30,30,0,0,0-6.3-2.07,30.73,30.73,0,0,0-3.31-.5,27,27,0,0,0-3.37-.08,24.4,24.4,0,0,0-3.39.37,22,22,0,0,0-3.33.85,19.82,19.82,0,0,0-8.7,5.76,19.73,19.73,0,0,0-2.07,2.89,21.62,21.62,0,0,0-2.49,6.56,28.33,28.33,0,0,0-.5,6.85,34.26,34.26,0,0,0,6.63,18.78c.32.45.65.9,1,1.33l.47.61c.16.2.31.39.44.58s.3.39.43.59a3.13,3.13,0,0,0-.19.54c-.57.25-1.13.52-1.7.79a54.25,54.25,0,0,0-6.41,3.63,36.13,36.13,0,0,0-5.87,4.75,22.94,22.94,0,0,0-4.61,6.47,16.25,16.25,0,0,0-1.28,4,34.76,34.76,0,0,0-.42,3.77c-.16,2.44-.19,4.82-.17,7.19,0,4.75.25,9.44.53,14.13s.62,9.35,1,14l.63,7,.31,3.48.09,1.05-.92-.05c-1.6-.07-3.19-.11-4.78-.13s-3.17,0-4.77,0-3.18.05-4.78.11h-.22v0c.12-.84.24-1.68.35-2.53.22-1.69.41-3.38.58-5.08.33-3.4.62-6.81.9-10.22s.54-6.84.75-10.27.31-6.87.36-10.34c0-1.74,0-3.48-.08-5.24S79.2,106,79,104.15c-.07-.47-.11-.9-.21-1.42a15.9,15.9,0,0,0-.37-1.55,17.8,17.8,0,0,0-1.13-2.9,21.71,21.71,0,0,0-3.37-4.9,35.85,35.85,0,0,0-8.74-6.85,47,47,0,0,0-4.81-2.42c-.67-.3-1.35-.58-2-.85L59.16,82a45.77,45.77,0,0,0,2.63-4.51.89.89,0,0,0-.18-1,.87.87,0,0,0-1.24,0l0,0a44.11,44.11,0,0,1-3.67,3.27c-.65.52-1.3,1-2,1.52s-1.33,1-2,1.44a2.17,2.17,0,0,0-.74.87,2.21,2.21,0,0,0,1,3l.58.27h0c.66.3,1.43.68,2.15,1s1.45.74,2.16,1.13c1.42.79,2.81,1.63,4.15,2.51a33.83,33.83,0,0,1,7.06,6,17.52,17.52,0,0,1,2.36,3.55,11,11,0,0,1,.69,1.86c.09.31.16.63.22.94s.11.74.16,1.1a82.26,82.26,0,0,1,.5,9.81c.06,3.35,0,6.72-.06,10.1s-.13,6.78-.25,10.17l-.4,10.2c-.07,1.7-.11,3.41-.12,5.12,0,.85,0,1.71,0,2.58,0,.18,0,.37,0,.55l-.35,0a42.93,42.93,0,0,0-9.8,1.82,20.14,20.14,0,0,0-4.85,2.37,14.15,14.15,0,0,0-2.21,1.91,11.69,11.69,0,0,0-1.77,2.49A12.57,12.57,0,0,0,51.92,168a15.62,15.62,0,0,0,1.15,5.56,24.26,24.26,0,0,0,6,8.47,36.51,36.51,0,0,0,8.2,5.69,40,40,0,0,0,9.26,3.39,32.89,32.89,0,0,0,9.85.75,38.37,38.37,0,0,0,4.88-.76l1.2-.3,1.18-.34c.79-.24,1.57-.49,2.34-.78a39.64,39.64,0,0,0,8.8-4.53,31.12,31.12,0,0,0,7.37-7,21.94,21.94,0,0,0,2.65-4.64c.17-.43.34-.86.47-1.31l.2-.68.15-.7a14.52,14.52,0,0,0,.26-2.89,12.4,12.4,0,0,0-1.49-5.78,12.73,12.73,0,0,0-4-4.31,20.15,20.15,0,0,0-4.82-2.33,35.41,35.41,0,0,0-4.89-1.24c-1.59-.3-3.18-.5-4.76-.65L95.92,152l-.16-3.51-.32-7c-.24-4.66-.44-9.3-.57-13.94s-.2-9.27-.1-13.86c.06-2.29.16-4.58.37-6.79.1-1.1.27-2.21.43-3.18a10.89,10.89,0,0,1,.87-2.64A17.45,17.45,0,0,1,100,96.28a34.07,34.07,0,0,1,5-4,47.61,47.61,0,0,1,5.73-3.3c.49-.25,1-.48,1.49-.71,0,.33.08.66.1,1a42.69,42.69,0,0,1,0,5.88c0,1-.13,2-.21,3l-.12,1.6c-.05.54-.07,1.09-.09,1.64a37,37,0,0,0,.34,6.63,23.56,23.56,0,0,0,1.95,6.57,15.31,15.31,0,0,0,4.42,5.6,13.15,13.15,0,0,0,6.71,2.66,16.84,16.84,0,0,0,6.91-.77,23.26,23.26,0,0,0,6-3,33.77,33.77,0,0,0,9-9.36,46.51,46.51,0,0,0,5.43-11.58,60.3,60.3,0,0,0,2.43-12.44A1,1,0,0,0,154.19,84.6ZM107.44,162a7.21,7.21,0,0,1,2.21,2.64,6.93,6.93,0,0,1,.63,3.28,15.7,15.7,0,0,1-2.45,7.24,28.33,28.33,0,0,1-5.66,6.48,31.31,31.31,0,0,1-7.46,4.78A25.92,25.92,0,0,1,90.52,188a24.21,24.21,0,0,1-4.37.82,26.78,26.78,0,0,1-16.9-4.48,32.75,32.75,0,0,1-6.68-5.7,21.72,21.72,0,0,1-4.34-7,11.08,11.08,0,0,1-.67-3.62,7,7,0,0,1,.72-3.23c.91-1.91,3.08-3.44,5.66-4.52a35.87,35.87,0,0,1,8.5-2.26c1.5-.24,3-.41,4.54-.54s3.07-.2,4.61-.23a72.77,72.77,0,0,1,18.21,1.53A20.68,20.68,0,0,1,107.44,162Z"/><path class="cls-2" d="M56.22,116.6a16.86,16.86,0,0,0,1.09-7.15,19.92,19.92,0,0,0-1.73-6.88,26,26,0,0,0-3.68-5.86A39,39,0,0,0,41.58,88.2a64.37,64.37,0,0,0-11.93-5.31c-.51-.17-1-.35-1.54-.5l-.77-.25-.61-.2a9.49,9.49,0,0,1-2.14-1.12,9.82,9.82,0,0,1-3.13-3.71,11.08,11.08,0,0,1-1.12-4.84,11.53,11.53,0,0,1,.29-2.49A11,11,0,0,1,21,68.57l.51-1.4a41.11,41.11,0,0,1,5.6-10.26,29.12,29.12,0,0,1,8.41-7.67,23.1,23.1,0,0,1,10.63-3.35,18.14,18.14,0,0,1,10.63,2.55,14.8,14.8,0,0,1,4.09,3.68,15.72,15.72,0,0,1,2.55,5A17.46,17.46,0,0,1,64,59.93c.08.48.11,1,.16,1.46s.06,1,0,1.48a28.46,28.46,0,0,1-.65,6h0a.86.86,0,0,0,.55,1,.88.88,0,0,0,1.11-.51A27.51,27.51,0,0,0,66.78,63a21.3,21.3,0,0,0-.24-6.7A18.39,18.39,0,0,0,64,49.94a18.72,18.72,0,0,0-4.82-5.06,22.32,22.32,0,0,0-13.18-4,27.91,27.91,0,0,0-13.2,3.64,34.73,34.73,0,0,0-10.17,9A46.41,46.41,0,0,0,16.25,65.2l-.55,1.56a14.92,14.92,0,0,0-.51,1.8,16.73,16.73,0,0,0-.39,3.74,16.45,16.45,0,0,0,1.75,7.26,15.19,15.19,0,0,0,4.94,5.72A14.66,14.66,0,0,0,24.9,87l.89.28.72.22c.49.14,1,.3,1.45.46a60.27,60.27,0,0,1,11,4.75,33.51,33.51,0,0,1,9.1,7.18,17.57,17.57,0,0,1,4.5,9.87,12.26,12.26,0,0,1-.64,5.18,10.55,10.55,0,0,1-2.84,4.26,9.9,9.9,0,0,1-4.53,2.31,11.61,11.61,0,0,1-5.27-.14,21,21,0,0,1-9.61-6,46.52,46.52,0,0,1-7.08-9.76,83.63,83.63,0,0,1-5.16-11.2,1.23,1.23,0,0,0-1.52-.73,1.21,1.21,0,0,0-.78,1.53,81.86,81.86,0,0,0,4.73,11.84,48.86,48.86,0,0,0,7.18,10.79,30.69,30.69,0,0,0,5,4.45,20.89,20.89,0,0,0,6.2,3,15.42,15.42,0,0,0,7.16.39,14.2,14.2,0,0,0,6.6-3.14A15.12,15.12,0,0,0,56.22,116.6Z"/><path class="cls-2" d="M65.05,173.51c3.71,5.58,11.44,10.79,19.06,10.79s14.68-4.56,19.3-11.06a2.84,2.84,0,0,0-1.55-4.56,91.31,91.31,0,0,0-17.75-1.34c-7.43,0-13.27.52-17.65,1.59C64.41,169.43,63.88,171.75,65.05,173.51Z"/></g></g></svg>