<svg xmlns="http://www.w3.org/2000/svg" viewBox="0 0 331 446.76"><defs><style>.cls-1{fill:#002d7c;}</style></defs><g id="Layer_2" data-name="Layer 2"><g id="Layer_1-2" data-name="Layer 1"><path class="cls-1" d="M159.86,306.91c-3,.07-6,.19-9,.46s-5.93.58-8.84,1a70.86,70.86,0,0,0-16.58,4.41c-5,2.11-9.26,5.09-11,8.81a13.55,13.55,0,0,0-1.4,6.3,21.66,21.66,0,0,0,1.29,7,42.12,42.12,0,0,0,8.47,13.71,63.91,63.91,0,0,0,13,11.11c9.69,6.22,21.44,9.91,32.93,8.72a48.51,48.51,0,0,0,8.51-1.59,50.53,50.53,0,0,0,8.17-3A60.63,60.63,0,0,0,200,354.61,54.89,54.89,0,0,0,211,342a30.44,30.44,0,0,0,4.78-14.1,13.75,13.75,0,0,0-1.22-6.4,14.54,14.54,0,0,0-4.31-5.15c-3.91-3-9.31-5.08-14.89-6.44C184.05,307.21,171.87,306.67,159.86,306.91Zm39.49,22.46c4.07.84,5.42,5.49,3,8.88-9,12.67-22.47,21.54-37.61,21.54-14.84,0-29.9-10.14-37.13-21-2.28-3.43-1.24-7.95,2.75-8.93,8.53-2.09,19.91-3.1,34.38-3.1S190.61,327.56,199.35,329.37Z"/><path class="cls-1" d="M297.14,0H33.86A33.86,33.86,0,0,0,0,33.86V412.91a33.86,33.86,0,0,0,33.86,33.85H297.14A33.86,33.86,0,0,0,331,412.91v-379A33.86,33.86,0,0,0,297.14,0Zm1.37,191a90.28,90.28,0,0,1-10.58,22.66A65.8,65.8,0,0,1,270.3,232a45.17,45.17,0,0,1-11.8,5.86,32.9,32.9,0,0,1-13.6,1.53,26.07,26.07,0,0,1-13.25-5.23,30.23,30.23,0,0,1-8.74-11,45.68,45.68,0,0,1-3.84-12.9,71.18,71.18,0,0,1-.68-13c0-1.07.06-2.14.16-3.2l.23-3.12c.16-2,.32-3.93.41-5.88a86.72,86.72,0,0,0,0-11.41q0-.62-.12-1.23c-1,.45-2,.92-2.93,1.41-2.8,1.41-5.53,2.95-8.15,4.6a62.39,62.39,0,0,0-13.86,11.49,34,34,0,0,0-4.65,6.85,22.23,22.23,0,0,0-1.43,3.63c-.18.61-.32,1.23-.45,1.85l-.36,2.17a165.67,165.67,0,0,0-1.38,19.12c-.17,6.53-.17,13.11-.08,19.7s.18,13.2.36,19.82l.6,19.86.3,10,.13,5c0,.72,0,1.43,0,2.15,3.32.29,6.65.69,10,1.32a68.65,68.65,0,0,1,9.53,2.42,39.41,39.41,0,0,1,9.4,4.54,23.62,23.62,0,0,1,10.66,19.66,29.85,29.85,0,0,1-.52,5.63l-.3,1.36-.38,1.32a26.73,26.73,0,0,1-.91,2.56,43.42,43.42,0,0,1-5.16,9,60.67,60.67,0,0,1-14.37,13.56A77.31,77.31,0,0,1,188,370.19c-1.5.57-3,1.05-4.56,1.52l-2.31.67-2.34.57a74.07,74.07,0,0,1-9.51,1.49A64.3,64.3,0,0,1,150.08,373a79,79,0,0,1-18.05-6.6,71.14,71.14,0,0,1-16-11.1,46.92,46.92,0,0,1-11.77-16.51A30.33,30.33,0,0,1,102,328a24.42,24.42,0,0,1,2.67-11.37,22.81,22.81,0,0,1,3.45-4.84,28.81,28.81,0,0,1,4.3-3.73,39,39,0,0,1,9.46-4.61A83,83,0,0,1,141,299.85l.76-.05.06-2,.17-5,.38-10q.38-9.94.66-19.89c.34-13.24.55-26.49.14-39.59a163,163,0,0,0-1.53-19.14l-.4-2.15a17.21,17.21,0,0,0-.42-1.86,22.48,22.48,0,0,0-1.4-3.67,31.43,31.43,0,0,0-4.67-6.92,62.34,62.34,0,0,0-14-11.46c-2.65-1.64-5.4-3.16-8.22-4.56q-2.11-1.05-4.28-2c-.71-.32-1.43-.63-2.15-.92s-1.49-.59-2.07-.8h0l-.1,0a5.85,5.85,0,0,1-3.4-7.55,6.09,6.09,0,0,1,.89-1.58c2.68-3.35,5.25-6.78,7.58-10.33a97.23,97.23,0,0,0,6.22-11c3.58-7.51,5.88-15.55,5.79-23.35a32,32,0,0,0-2.06-11.18,27,27,0,0,0-6-9.3,31.65,31.65,0,0,0-20.59-8.88,40.59,40.59,0,0,0-11.75,1A47.14,47.14,0,0,0,69.39,92,56.7,56.7,0,0,0,51.18,108a83.27,83.27,0,0,0-11.5,22.25,21.56,21.56,0,0,0-1,10.62,20.77,20.77,0,0,0,4.2,9.7,18.29,18.29,0,0,0,8.39,6l.64.22.82.26,1.65.53,3.28,1.11c2.18.77,4.35,1.57,6.5,2.45a106.06,106.06,0,0,1,24.54,13.59,68.59,68.59,0,0,1,10.49,9.84A50.05,50.05,0,0,1,107.11,197a38.21,38.21,0,0,1,3.26,14.73,31.8,31.8,0,0,1-3.48,15A28.43,28.43,0,0,1,96.32,238a27.9,27.9,0,0,1-14.92,3.92,34.12,34.12,0,0,1-14.49-3.73,49.79,49.79,0,0,1-11.76-8.33,87.09,87.09,0,0,1-16.49-22.38,160.31,160.31,0,0,1-10.6-25.16,2.7,2.7,0,0,1,5.1-1.79h0a156.82,156.82,0,0,0,11,23.91,80.94,80.94,0,0,0,15.81,20.18,42,42,0,0,0,10.21,6.88,26.42,26.42,0,0,0,11.34,2.66,19.69,19.69,0,0,0,17.91-11.29,23.28,23.28,0,0,0,2.26-11,29.45,29.45,0,0,0-2.76-11.24c-3.31-7.21-9.14-13.36-15.86-18.3a96.71,96.71,0,0,0-22.51-11.87c-2-.77-4-1.48-6.09-2.16l-3.09-1-1.56-.46-.78-.24-1-.3a28.66,28.66,0,0,1-13.3-9.16,32.11,32.11,0,0,1-5.21-30.4,91.36,91.36,0,0,1,13-25.22A67.32,67.32,0,0,1,64.3,82.48a57.54,57.54,0,0,1,13.82-5.25A51.19,51.19,0,0,1,93,76,47.56,47.56,0,0,1,100.49,77a45.89,45.89,0,0,1,7.28,2.3,43.91,43.91,0,0,1,6.81,3.6,42.37,42.37,0,0,1,6,4.9,40.53,40.53,0,0,1,5,6.05,41.86,41.86,0,0,1,3.61,6.93,42.74,42.74,0,0,1,2.94,15c.18,10.14-2.64,19.74-6.64,28.36a108.14,108.14,0,0,1-6.82,12.43c-1.14,1.78-2.33,3.52-3.55,5.24.86.39,1.72.8,2.57,1.21,3.14,1.54,6.22,3.21,9.23,5.06a73.41,73.41,0,0,1,16.78,13.63,44.06,44.06,0,0,1,6.48,9.53,34.7,34.7,0,0,1,2.17,5.63,27.07,27.07,0,0,1,.7,3c.18,1,.24,1.84.35,2.77.36,3.59.46,7,.51,10.47s0,6.81-.11,10.18c-.41,13.49-1.46,26.8-2.63,40.08q-.88,10-1.89,19.9l-1,9.92-.48,4.94c0,.42-.07.84-.11,1.26.9-.05,1.8-.1,2.71-.13,3.11-.11,6.22-.17,9.32-.21s6.18,0,9.28,0,6.2.12,9.32.26l2.63.14c-.05-.44-.09-.88-.14-1.31l-.51-4.94-1.08-9.9c-.74-6.6-1.33-13.23-1.93-19.86-1.2-13.27-2.16-26.57-2.47-40-.07-3.38-.11-6.76,0-10.18s.19-6.86.56-10.44c.11-.92.21-1.78.37-2.75a30,30,0,0,1,.65-3,35,35,0,0,1,2.07-5.66,40.79,40.79,0,0,1,6.37-9.63,71.72,71.72,0,0,1,16.75-13.71q4.5-2.78,9.22-5.06c1.43-.7,2.88-1.37,4.33-2-.3-.44-.61-.88-1-1.33s-.55-.73-.86-1.11l-.93-1.19c-.67-.85-1.33-1.72-2-2.61A67.55,67.55,0,0,1,199.26,131a68.79,68.79,0,0,1-1.84-13.1,55.13,55.13,0,0,1,1-13.45,43,43,0,0,1,4.92-12.93,40,40,0,0,1,4.09-5.69,38.73,38.73,0,0,1,17.15-11.31,43.09,43.09,0,0,1,6.55-1.67,46.6,46.6,0,0,1,6.64-.7,52.18,52.18,0,0,1,6.62.16,56.46,56.46,0,0,1,6.49,1,58,58,0,0,1,12.34,4.08,64.25,64.25,0,0,1,20.62,15.1,71.49,71.49,0,0,1,13.37,21.4,91.13,91.13,0,0,1,5.93,24.18,2.25,2.25,0,0,1-4.45.62v0a85.56,85.56,0,0,0-6.69-22.5,66.63,66.63,0,0,0-13.11-19,56.76,56.76,0,0,0-18.8-12.59,50.11,50.11,0,0,0-10.78-3.06,49,49,0,0,0-5.52-.6,48.13,48.13,0,0,0-5.51.1,33.84,33.84,0,0,0-19.47,7.67,29.12,29.12,0,0,0-9.57,17.76,44.38,44.38,0,0,0-.31,10.7c0,.91.18,1.82.31,2.73s.27,1.81.44,2.72A50.76,50.76,0,0,0,210.9,128a71.59,71.59,0,0,0,9.19,20c.51.78,1,1.54,1.6,2.29l.89,1.24c.31.41.63.86.95,1.32.47.67.93,1.38,1.39,2.11,1.66-1.43,3.3-2.91,4.89-4.46a117.47,117.47,0,0,0,9.8-10.83A120.22,120.22,0,0,0,255,114.56h0a2.4,2.4,0,0,1,4.47,1.73,127.38,127.38,0,0,1-22.21,41.08c-1.1,1.37-2.25,2.7-3.42,4a43.83,43.83,0,0,1,17,16.27,50.46,50.46,0,0,1,3.84,7.9l1.46,3.79c.49,1.21,1,2.41,1.53,3.58a32.44,32.44,0,0,0,3.69,6.42,12,12,0,0,0,5.25,4h0a2.47,2.47,0,0,1-1.57,4.68,16.81,16.81,0,0,1-4.36-1.95,19.54,19.54,0,0,1-3.62-3.06,37.9,37.9,0,0,1-5.1-7.18c-.71-1.24-1.38-2.48-2-3.73-.33-.62-.62-1.25-.93-1.87l-.46-.93-.45-.83a43.45,43.45,0,0,0-4-6.29,35.42,35.42,0,0,0-10.85-9.35,32.8,32.8,0,0,0-3.33-1.6c0,.54.06,1.07.09,1.62a96.69,96.69,0,0,1-.41,12.82c-.18,2.09-.42,4.14-.66,6.2l-.33,2.92c-.12.95-.18,1.89-.25,2.84-.53,7.54,0,15.18,2.8,21.58a21.27,21.27,0,0,0,5.83,8.06,17.56,17.56,0,0,0,8.89,3.88,25,25,0,0,0,10.35-.82,38,38,0,0,0,10-4.54A59.5,59.5,0,0,0,282.64,210a84.53,84.53,0,0,0,10.77-20.73,112.12,112.12,0,0,0,5.5-23v0a2.16,2.16,0,0,1,4.3.49A115.67,115.67,0,0,1,298.51,191Z"/></g></g></svg>